<svg width="112" height="24" viewBox="0 0 112 24" fill="none" xmlns="http://www.w3.org/2000/svg">
<path d="M21.5156 5.125C21.5469 5.25 21.5625 5.45312 21.5625 5.73438C21.5625 7.39062 21.25 9.04688 20.625 10.7031C20 12.3281 19.1094 13.8281 17.9531 15.2031C16.8281 16.5469 15.3594 17.6406 13.5469 18.4844C11.7344 19.3281 9.73438 19.75 7.54688 19.75C4.79688 19.75 2.28125 19.0156 0 17.5469C0.34375 17.5781 0.734375 17.5938 1.17188 17.5938C3.45312 17.5938 5.5 16.8906 7.3125 15.4844C6.21875 15.4844 5.25 15.1719 4.40625 14.5469C3.59375 13.8906 3.03125 13.0781 2.71875 12.1094C3.03125 12.1406 3.32812 12.1562 3.60938 12.1562C4.04688 12.1562 4.48438 12.1094 4.92188 12.0156C4.17188 11.8594 3.5 11.5469 2.90625 11.0781C2.3125 10.6094 1.84375 10.0469 1.5 9.39062C1.15625 8.70312 0.984375 7.96875 0.984375 7.1875V7.09375C1.67188 7.5 2.40625 7.71875 3.1875 7.75C1.71875 6.75 0.984375 5.375 0.984375 3.625C0.984375 2.75 1.21875 1.92188 1.6875 1.14062C2.90625 2.67188 4.39062 3.89063 6.14062 4.79688C7.92188 5.70312 9.8125 6.20312 11.8125 6.29688C11.75 5.92188 11.7188 5.54688 11.7188 5.17188C11.7188 3.82812 12.1875 2.67188 13.125 1.70312C14.0938 0.734375 15.25 0.25 16.5938 0.25C18.0312 0.25 19.2344 0.765625 20.2031 1.79688C21.3281 1.57812 22.375 1.1875 23.3438 0.625C22.9688 1.78125 22.25 2.6875 21.1875 3.34375C22.125 3.21875 23.0625 2.95313 24 2.54688C23.3125 3.54687 22.4844 4.40625 21.5156 5.125Z" fill="url(#paint0_linear)"/>
<path d="M66.5 3.75V20.25C66.5 20.875 66.2812 21.4062 65.8438 21.8438C65.4062 22.2812 64.875 22.5 64.25 22.5H60.2656V14.2031H63.0781L63.5 11.0156H60.2656V9C60.2656 8.5 60.3594 8.125 60.5469 7.875C60.7969 7.59375 61.2188 7.45312 61.8125 7.45312H63.5V4.64062C62.8438 4.54688 62.0312 4.5 61.0625 4.5C59.8125 4.5 58.8125 4.875 58.0625 5.625C57.3438 6.34375 56.9844 7.35938 56.9844 8.67188V11.0156H54.125V14.2031H56.9844V22.5H47.75C47.125 22.5 46.5938 22.2812 46.1562 21.8438C45.7188 21.4062 45.5 20.875 45.5 20.25V3.75C45.5 3.125 45.7188 2.59375 46.1562 2.15625C46.5938 1.71875 47.125 1.5 47.75 1.5H64.25C64.875 1.5 65.4062 1.71875 65.8438 2.15625C66.2812 2.59375 66.5 3.125 66.5 3.75Z" fill="url(#paint1_linear)"/>
<path d="M100 6.60938C99.0312 6.60938 98.125 6.85937 97.2812 7.35938C96.4688 7.82812 95.8125 8.48438 95.3125 9.32812C94.8438 10.1406 94.6094 11.0312 94.6094 12C94.6094 12.9688 94.8438 13.875 95.3125 14.7188C95.8125 15.5312 96.4688 16.1875 97.2812 16.6875C98.125 17.1562 99.0312 17.3906 100 17.3906C100.969 17.3906 101.859 17.1562 102.672 16.6875C103.516 16.1875 104.172 15.5312 104.641 14.7188C105.141 13.875 105.391 12.9688 105.391 12C105.391 11.0312 105.141 10.1406 104.641 9.32812C104.172 8.48438 103.516 7.82812 102.672 7.35938C101.859 6.85937 100.969 6.60938 100 6.60938ZM100 15.5156C99.0312 15.5156 98.2031 15.1719 97.5156 14.4844C96.8281 13.7969 96.4844 12.9688 96.4844 12C96.4844 11.0312 96.8281 10.2031 97.5156 9.51562C98.2031 8.82812 99.0312 8.48438 100 8.48438C100.969 8.48438 101.797 8.82812 102.484 9.51562C103.172 10.2031 103.516 11.0312 103.516 12C103.516 12.9688 103.172 13.7969 102.484 14.4844C101.797 15.1719 100.969 15.5156 100 15.5156ZM106.891 6.375C106.859 6.71875 106.719 7.01563 106.469 7.26562C106.25 7.51562 105.969 7.64062 105.625 7.64062C105.281 7.64062 104.984 7.51562 104.734 7.26562C104.484 7.01563 104.359 6.71875 104.359 6.375C104.359 6.03125 104.484 5.73437 104.734 5.48438C104.984 5.23438 105.281 5.10938 105.625 5.10938C105.969 5.10938 106.266 5.23438 106.516 5.48438C106.766 5.73437 106.891 6.03125 106.891 6.375ZM110.453 7.64062C110.391 6.73438 110.25 5.95312 110.031 5.29688C109.75 4.51562 109.312 3.84375 108.719 3.28125C108.156 2.6875 107.484 2.25 106.703 1.96875C106.047 1.75 105.266 1.625 104.359 1.59375C103.484 1.53125 102.031 1.5 100 1.5C97.9688 1.5 96.5 1.53125 95.5938 1.59375C94.7188 1.625 93.9531 1.75 93.2969 1.96875C92.5156 2.25 91.8281 2.6875 91.2344 3.28125C90.6719 3.84375 90.25 4.51562 89.9688 5.29688C89.75 5.95312 89.6094 6.73438 89.5469 7.64062C89.5156 8.51562 89.5 9.96875 89.5 12C89.5 14.0312 89.5156 15.5 89.5469 16.4062C89.6094 17.2812 89.75 18.0469 89.9688 18.7031C90.25 19.4844 90.6719 20.1719 91.2344 20.7656C91.8281 21.3281 92.5156 21.7344 93.2969 21.9844C93.9531 22.2344 94.7188 22.375 95.5938 22.4062C96.5 22.4688 97.9688 22.5 100 22.5C102.031 22.5 103.484 22.4688 104.359 22.4062C105.266 22.375 106.047 22.25 106.703 22.0312C107.484 21.75 108.156 21.3281 108.719 20.7656C109.312 20.1719 109.75 19.4844 110.031 18.7031C110.25 18.0469 110.375 17.2812 110.406 16.4062C110.469 15.5 110.5 14.0312 110.5 12C110.5 9.96875 110.484 8.51562 110.453 7.64062ZM108.203 18.1875C107.828 19.125 107.156 19.7969 106.188 20.2031C105.688 20.3906 104.844 20.5156 103.656 20.5781C103 20.6094 102.031 20.625 100.75 20.625H99.25C98 20.625 97.0312 20.6094 96.3438 20.5781C95.1875 20.5156 94.3438 20.3906 93.8125 20.2031C92.875 19.8281 92.2031 19.1562 91.7969 18.1875C91.6094 17.6562 91.4844 16.8125 91.4219 15.6562C91.3906 14.9688 91.375 14 91.375 12.75V11.25C91.375 10 91.3906 9.03125 91.4219 8.34375C91.4844 7.15625 91.6094 6.3125 91.7969 5.8125C92.1719 4.84375 92.8438 4.17188 93.8125 3.79688C94.3438 3.60938 95.1875 3.48437 96.3438 3.42188C97.0312 3.39062 98 3.375 99.25 3.375H100.75C102 3.375 102.969 3.39062 103.656 3.42188C104.844 3.48437 105.688 3.60938 106.188 3.79688C107.156 4.17188 107.828 4.84375 108.203 5.8125C108.391 6.3125 108.516 7.15625 108.578 8.34375C108.609 9 108.625 9.96875 108.625 11.25V12.75C108.625 14 108.609 14.9688 108.578 15.6562C108.516 16.8125 108.391 17.6562 108.203 18.1875Z" fill="url(#paint2_linear)"/>
<defs>
<linearGradient id="paint0_linear" x1="12" y1="0" x2="12" y2="24" gradientUnits="userSpaceOnUse">
<stop stop-color="#BC9CFF"/>
<stop offset="1" stop-color="#8BA4F9"/>
</linearGradient>
<linearGradient id="paint1_linear" x1="56" y1="0" x2="56" y2="24" gradientUnits="userSpaceOnUse">
<stop stop-color="#BC9CFF"/>
<stop offset="1" stop-color="#8BA4F9"/>
</linearGradient>
<linearGradient id="paint2_linear" x1="100" y1="0" x2="100" y2="24" gradientUnits="userSpaceOnUse">
<stop stop-color="#BC9CFF"/>
<stop offset="1" stop-color="#8BA4F9"/>
</linearGradient>
</defs>
</svg>
